# xmcd
#
# Track frame offsets:
#   183
#   41948
#   52383
#   66940
#   81708
#   97413
#   110505
#   127690
#   151808
#
# Disc length: 2500 seconds
#
# Revision: 0
# Processed by: cddbd v1.5.2PL0 Copyright (c) Steve Scherf et al.
# Submitted via: GXTranscoder 2.0.1939
#
DISCID=8609c209
DTITLE=Rolling Stones - Master Sessions '68
DYEAR=1900
DGENRE=Blues
TTITLE0=01 - Sympathy For The Devil
TTITLE1=02 - Parachute Woman
TTITLE2=03 - No Expectations
TTITLE3=04 - Prodigal Son
TTITLE4=05 - Dear Doctor
TTITLE5=06 - You Got The Silver
TTITLE6=07 - You Can't Always Get What You Want
TTITLE7=08 - Sympathy For The Devil (Psychedellic Version)
TTITLE8=09 - Goin' Home (only guitar and vocals)
EXTD=
EXTT0=
EXTT1=
EXTT2=
EXTT3=
EXTT4=
EXTT5=
EXTT6=
EXTT7=
EXTT8=
PLAYORDER=
